# File produced by Open Asset Import Library (http://www.assimp.sf.net)
# (assimp v3.1.113183908)

mtllib maison%202%20texture%20test.mtl

# vertex positions
v 100.000000 100.000023 124.499153
v 100.000000 100.000015 99.999985
v 139.120239 100.000015 99.999985
v 139.120239 100.000023 124.499153
v 120.688553 -99.999977 100.000015
v 120.688553 -63.744026 100.000008
v 120.688553 -63.744026 130.177475
v 120.688553 -99.999977 130.177475
v -124.157692 -66.654778 100.000008
v -124.157692 -99.999977 100.000015
v -124.157692 -99.999977 130.177475
v -124.157692 -66.654778 130.177475
v -99.999992 -100.000008 -99.999977
v 100.000000 -100.000008 -99.999977
v 100.000000 -99.999977 100.000015
v -99.999992 -99.999977 100.000015
v 100.000000 -64.171783 -99.999992
v 100.000000 -64.148048 -88.901085
v 100.000000 -63.759430 92.794464
v 100.000000 -63.744026 100.000008
v 120.688553 -64.171783 -99.999992
v 120.688553 -100.000008 -99.999977
v 100.000000 -100.000023 -125.090271
v 120.688553 -100.000023 -125.090271
v 75.694695 148.989410 -77.319046
v -52.651699 154.317596 -77.319046
v 10.126818 214.029785 -7.291574
v 105.566338 -63.759430 92.794464
v 105.566338 -63.744026 100.000008
v 81.238052 82.524788 -100.000015
v -75.775826 81.635445 -100.000015
v -75.775826 81.635445 -106.657555
v 81.238052 82.524788 -106.657555
v -99.999992 -66.103889 -99.999992
v -99.999992 -66.123940 -92.722298
v -105.309006 -66.123940 -92.722298
v -105.309006 -66.103889 -99.999992
v 84.473167 23.841217 99.999985
v 85.635674 -63.953087 100.000008
v 85.635674 -63.953087 105.858551
v 84.473167 23.841217 105.858536
v -99.999992 100.000015 99.999985
v -87.045479 100.000015 99.999985
v 83.464676 100.000015 99.999985
v -99.999992 100.000023 124.499153
v -52.651699 154.317627 62.735882
v -125.497734 133.342529 -100.000023
v -125.497734 133.342560 99.999977
v 75.694695 148.989441 62.735886
v 139.120239 133.342560 99.999977
v 139.120239 133.342529 -100.000023
v 100.000000 133.342560 124.499146
v -99.999992 133.342560 124.499146
v 139.120239 133.342560 124.499146
v -125.497734 133.342560 124.499146
v 100.000000 99.999977 -126.254974
v -99.999992 99.999977 -126.254974
v -99.999992 133.342529 -126.254974
v 100.000000 133.342529 -126.254974
v 100.000000 99.999985 -100.000015
v 80.921898 99.999985 -100.000015
v -75.903709 99.999985 -100.000015
v -99.999992 99.999985 -100.000015
v -125.497734 99.999985 -100.000015
v -125.497734 99.999977 -126.254974
v 139.120239 99.999985 -100.000015
v 139.120239 99.999977 -126.254974
v 139.120239 133.342529 -126.254974
v 100.000000 99.999985 -80.937103
v 100.000000 99.999985 -88.622658
v -125.497734 100.000015 99.999985
v -125.497734 100.000023 124.499153
v -125.497734 133.342529 -126.254974
v -99.999992 100.000000 63.596043
v -99.999992 100.000015 91.818138
v -124.157692 -66.103889 -99.999992
v -124.157692 -100.000008 -99.999977
v -99.999992 -66.654778 100.000008
v -99.999992 -66.617912 86.613045
v -124.157692 -100.000023 -125.090271
v -99.999992 -100.000023 -125.090271
v -99.999992 -66.654778 130.177475
v 120.688553 -64.171791 -125.090279
v 100.000000 -99.999977 130.177475
v 100.000000 -63.744026 130.177475
v -99.999992 -99.999977 130.177475
v -85.671211 -66.446243 100.000008
v -99.999992 -66.103889 -125.090279
v 100.000000 -64.171791 -125.090279
v -124.157692 -66.103889 -125.090279
v -74.748718 -65.859955 -99.999992
v -13.033127 -65.263748 -99.999992
v 37.566341 -64.774918 -99.999992
v 83.894814 -64.327370 -99.999992
v 36.154144 -1.276447 -77.286575
v 37.566341 -64.774918 -77.286575
v 37.566341 -64.774918 -92.694443
v 36.154144 -1.276451 -92.694450
v -12.201138 -0.459236 -100.000000
v -12.201138 -0.459229 -77.286575
v -13.033127 -65.263748 -77.286575
v 36.154144 -1.276451 -100.000000
v -13.033127 -65.263748 -92.694443
v -12.201138 -0.459229 -92.694450
v 100.000000 -64.171783 -106.657532
v 83.894814 -64.327370 -106.657532
v 100.000000 82.631058 -106.657555
v -74.748718 -65.859955 -106.657532
v 80.921898 99.999985 -106.657555
v -75.903709 99.999985 -106.657555
v -99.999992 99.999985 -106.657555
v 100.000000 99.999985 -106.657555
v -99.999992 81.498230 -106.657555
v -99.999992 -66.103889 -106.657532
v -105.309006 -66.103889 -106.657532
v -105.309006 100.000015 91.818138
v -105.309006 100.000015 99.999985
v 105.566338 -64.171783 -106.657532
v 105.566338 -64.171783 -99.999992
v 100.000000 -63.744026 105.858551
v 105.566338 -63.744026 105.858551
v -99.999992 -66.654778 105.858551
v -85.671211 -66.446243 105.858551
v -86.398735 21.668289 105.858543
v -99.999992 21.495377 105.858543
v -99.999992 -48.025932 -99.999992
v -99.999992 81.498230 -100.000015
v -105.309006 81.498230 -106.657555
v -105.309006 99.999985 -106.657555
v -86.537003 38.415131 99.999985
v 84.235405 41.799526 99.999985
v 105.566338 99.999985 -100.000015
v 105.566338 99.999985 -106.657555
v -87.045479 100.000015 105.858521
v -86.537003 38.415134 105.858536
v 100.000000 -50.055977 100.000008
v 105.566338 -50.055977 100.000008
v 105.566338 99.999985 -80.937103
v -86.398735 21.668289 100.000000
v -105.309006 -66.654778 100.000008
v -105.309006 -66.617912 86.613045
v 100.000000 100.000015 105.858521
v 105.566338 100.000015 105.858521
v 105.566338 100.000015 99.999985
v 100.000000 42.111950 99.999985
v 100.000000 24.038666 99.999985
v 105.566338 42.111950 99.999985
v 105.566338 24.038666 99.999985
v 100.000000 90.349945 -88.639023
v -99.999992 38.148422 105.858536
v -99.999992 100.000015 105.858521
v 100.000000 42.111954 105.858536
v 84.235405 41.799530 105.858536
v 100.000000 24.038666 105.858536
v 100.000000 -50.055977 105.858551
v 83.464676 100.000015 105.858521
v 105.566338 -50.055977 105.858551
v -105.309006 -48.025932 -99.999992
v -105.309006 100.000000 63.596043
v -105.309006 99.999985 -100.000015
v -105.309006 81.498230 -100.000015
v -105.309006 21.495377 100.000000
v -105.309006 38.148418 99.999985
v -105.309006 38.148422 105.858536
v -105.309006 100.000015 105.858521
v -105.309006 21.495377 105.858543
v -105.309006 -66.654778 105.858551
v 105.566338 90.349945 -88.639023
v 105.566338 99.999985 -88.622658
v 105.566338 82.631058 -100.000015
v 105.566338 82.631058 -106.657555
v 105.566338 42.111954 105.858536
v 105.566338 24.038666 105.858536
v 105.566338 -64.148048 -88.901085

# UV coordinates
vt 0.264793 0.042933
vt 0.239111 0.042933
vt 0.239111 0.001942
vt 0.264793 0.001942
vt 0.663850 0.033572
vt 0.625852 0.033572
vt 0.625852 0.001945
vt 0.663850 0.001945
vt 0.705624 0.033572
vt 0.670676 0.033572
vt 0.670676 0.001945
vt 0.705624 0.001945
vt 0.738872 0.028244
vt 0.948480 0.028244
vt 0.948480 0.237845
vt 0.738872 0.237845
vt 0.976326 0.514699
vt 0.976326 0.503066
vt 0.976326 0.312642
vt 0.976326 0.305091
vt 0.998008 0.305091
vt 0.998008 0.514699
vt 0.970162 0.028244
vt 0.948480 0.001942
vt 0.970162 0.001942
vt 0.482655 0.068418
vt 0.482655 0.202930
vt 0.409265 0.137135
vt 0.642855 0.741563
vt 0.642855 0.734015
vt 0.648687 0.734015
vt 0.648687 0.741563
vt 0.109630 0.733253
vt 0.109630 0.897806
vt 0.102646 0.897806
vt 0.102646 0.733253
vt 0.413133 0.516959
vt 0.413133 0.524586
vt 0.407569 0.524586
vt 0.407569 0.516959
vt 0.022377 0.733260
vt 0.022377 0.825272
vt 0.016237 0.825272
vt 0.016237 0.733260
vt 0.239111 0.252542
vt 0.239111 0.238967
vt 0.239111 0.060266
vt 0.264793 0.252542
vt 0.335873 0.202930
vt 0.506426 0.279274
vt 0.296819 0.279274
vt 0.335873 0.068418
vt 0.296819 0.001945
vt 0.506426 0.001945
vt 0.540098 0.252550
vt 0.540098 0.042943
vt 0.575042 0.042943
vt 0.575042 0.252550
vt 0.271142 0.042944
vt 0.271142 0.001945
vt 0.271142 0.252552
vt 0.271142 0.279274
vt 0.617915 0.042945
vt 0.617915 0.252553
vt 0.582974 0.252553
vt 0.582974 0.042945
vt 0.533941 0.042944
vt 0.533941 0.252552
vt 0.029510 0.042933
vt 0.029510 0.062934
vt 0.029510 0.227291
vt 0.029510 0.252542
vt 0.001992 0.252542
vt 0.001992 0.042933
vt 0.029510 0.279267
vt 0.001992 0.279267
vt 0.700321 0.508749
vt 0.735262 0.508749
vt 0.735262 0.536263
vt 0.700321 0.536263
vt 0.735262 0.299141
vt 0.700321 0.299141
vt 0.700321 0.273465
vt 0.735262 0.273465
vt 0.533941 0.001945
vt 0.540098 0.001944
vt 0.575042 0.001944
vt 0.582974 0.001946
vt 0.617915 0.001946
vt 0.001992 0.001942
vt 0.029510 0.001942
vt 0.049488 0.042933
vt 0.041430 0.042933
vt 0.659241 0.508749
vt 0.659241 0.299141
vt 0.694185 0.299141
vt 0.694185 0.508749
vt 0.659241 0.273465
vt 0.694185 0.273465
vt 0.694185 0.536263
vt 0.659241 0.536263
vt 0.264793 0.279267
vt 0.239111 0.279267
vt 0.533941 0.279274
vt 0.200961 0.252542
vt 0.230543 0.252542
vt 0.575042 0.279273
vt 0.540098 0.279273
vt 0.617915 0.279275
vt 0.582974 0.279275
vt 0.706202 0.243180
vt 0.670676 0.243180
vt 0.713554 0.237845
vt 0.713554 0.028244
vt 0.766718 0.305091
vt 0.766718 0.319121
vt 0.766718 0.507070
vt 0.766718 0.514699
vt 0.741400 0.514699
vt 0.741400 0.305091
vt 0.713554 0.001942
vt 0.738872 0.001942
vt 0.663850 0.243180
vt 0.626299 0.243180
vt 0.741400 0.273464
vt 0.766718 0.273464
vt 0.663850 0.269474
vt 0.626299 0.269474
vt 0.970162 0.237845
vt 0.615107 0.304948
vt 0.653105 0.304948
vt 0.650054 0.514556
vt 0.615107 0.514556
vt 0.650054 0.539875
vt 0.615107 0.539875
vt 0.615107 0.283267
vt 0.653105 0.283267
vt 0.738872 0.269475
vt 0.713554 0.269475
vt 0.948480 0.269475
vt 0.961270 0.305091
vt 0.781734 0.305091
vt 0.976326 0.273464
vt 0.970162 0.269475
vt 0.998008 0.273464
vt 0.608973 0.514562
vt 0.573447 0.514562
vt 0.571423 0.304954
vt 0.608973 0.304954
vt 0.608973 0.539880
vt 0.573447 0.539880
vt 0.571423 0.283269
vt 0.608973 0.283269
vt 0.998008 0.540993
vt 0.976326 0.540993
vt 0.793182 0.514699
vt 0.857862 0.514699
vt 0.910892 0.514699
vt 0.959445 0.514699
vt 0.766718 0.540993
vt 0.741400 0.540993
vt 0.706202 0.269474
vt 0.670676 0.269474
vt 0.117175 0.972854
vt 0.117175 0.906306
vt 0.133323 0.906306
vt 0.133323 0.972854
vt 0.025800 0.829599
vt 0.025800 0.897516
vt 0.001993 0.897516
vt 0.001993 0.829599
vt 0.164367 0.906306
vt 0.164367 0.972854
vt 0.140562 0.972854
vt 0.140562 0.906306
vt 0.222418 0.956986
vt 0.222418 0.906304
vt 0.246217 0.906304
vt 0.246217 0.956986
vt 0.857862 0.490894
vt 0.910892 0.490894
vt 0.033370 0.967089
vt 0.034242 0.899172
vt 0.084921 0.900027
vt 0.086400 0.966575
vt 0.253600 0.956984
vt 0.253600 0.906306
vt 0.269749 0.906306
vt 0.269749 0.956984
vt 0.215179 0.906304
vt 0.215179 0.959340
vt 0.199030 0.959340
vt 0.199030 0.906304
vt 0.093788 0.969718
vt 0.093788 0.901798
vt 0.109936 0.901798
vt 0.109936 0.969718
vt 0.385067 0.289099
vt 0.385231 0.305982
vt 0.231322 0.308763
vt 0.231213 0.289099
vt 0.053903 0.887839
vt 0.053903 0.733259
vt 0.060879 0.733259
vt 0.060879 0.887839
vt 0.211600 0.698451
vt 0.211600 0.534093
vt 0.218575 0.534093
vt 0.218575 0.698451
vt 0.211600 0.723706
vt 0.218575 0.723706
vt 0.211600 0.514097
vt 0.218575 0.514097
vt 0.116699 0.902314
vt 0.115765 0.737758
vt 0.269674 0.734976
vt 0.270141 0.783527
vt 0.203593 0.785006
vt 0.202738 0.835684
vt 0.270655 0.836559
vt 0.271279 0.901239
vt 0.213008 0.309097
vt 0.232256 0.473320
vt 0.213008 0.473453
vt 0.232401 0.498708
vt 0.213008 0.498708
vt 0.386836 0.472245
vt 0.387091 0.498708
vt 0.213008 0.289099
vt 0.413133 0.509976
vt 0.407569 0.509976
vt 0.349394 0.923998
vt 0.357968 0.923998
vt 0.357968 0.929562
vt 0.349394 0.929562
vt 0.297614 0.916254
vt 0.290631 0.916254
vt 0.290631 0.910416
vt 0.297614 0.910416
vt 0.642855 0.747707
vt 0.648687 0.747707
vt 0.439597 0.516959
vt 0.439597 0.509976
vt 0.297614 0.933132
vt 0.290631 0.933132
vt 0.040789 0.887164
vt 0.040789 0.733259
vt 0.047765 0.733259
vt 0.047765 0.887164
vt 0.226316 0.725420
vt 0.226536 0.710403
vt 0.318884 0.711165
vt 0.318701 0.725420
vt 0.277412 0.906430
vt 0.432548 0.734975
vt 0.432548 0.906430
vt 0.413158 0.906430
vt 0.843348 0.544984
vt 0.669244 0.738388
vt 0.668726 0.550439
vt 0.232401 0.504271
vt 0.213008 0.504271
vt 0.565788 0.935380
vt 0.501244 0.934848
vt 0.504790 0.755872
vt 0.565788 0.756680
vt 0.211600 0.508265
vt 0.218575 0.508265
vt 0.627799 0.741563
vt 0.627799 0.747707
vt 0.177888 0.906307
vt 0.177888 0.970850
vt 0.171748 0.970850
vt 0.171748 0.906307
vt 0.191620 0.514097
vt 0.001992 0.514097
vt 0.001992 0.508265
vt 0.191620 0.508265
vt 0.034651 0.733260
vt 0.034651 0.825608
vt 0.028511 0.825608
vt 0.028511 0.733260
vt 0.574536 0.755872
vt 0.666548 0.757090
vt 0.664268 0.936169
vt 0.571923 0.935407
vt 0.315968 0.925427
vt 0.329997 0.925427
vt 0.329997 0.930998
vt 0.315968 0.930998
vt 0.283128 0.916253
vt 0.276988 0.916253
vt 0.276988 0.910421
vt 0.283128 0.910421
vt 0.829948 0.742379
vt 0.672685 0.932007
vt 0.672685 0.742379
vt 0.733356 0.742379
vt 0.752298 0.742379
vt 0.078714 0.812874
vt 0.078714 0.793932
vt 0.084546 0.793932
vt 0.084546 0.812874
vt 0.836085 0.932528
vt 0.997597 0.742379
vt 0.998005 0.932803
vt 0.336154 0.725420
vt 0.336433 0.711310
vt 0.400976 0.711843
vt 0.400976 0.725420
vt 0.340309 0.515812
vt 0.339979 0.532335
vt 0.321159 0.532086
vt 0.321367 0.515812
vt 0.229149 0.530868
vt 0.229367 0.515812
vt 0.243712 0.515812
vt 0.400976 0.533143
vt 0.400976 0.515812
vt 0.488966 0.934953
vt 0.488966 0.755868
vt 0.495110 0.755868
vt 0.495110 0.934953
vt 0.229367 0.509980
vt 0.243712 0.509980
vt 0.660649 0.573445
vt 0.660649 0.744900
vt 0.655085 0.744900
vt 0.655085 0.573445
vt 0.191529 0.906307
vt 0.191529 0.967304
vt 0.185389 0.967304
vt 0.185389 0.906307
vt 0.349394 0.910421
vt 0.343253 0.923998
vt 0.343253 0.910421
vt 0.078714 0.890525
vt 0.084546 0.890525
vt 0.283128 0.933584
vt 0.276988 0.933584
vt 0.329997 0.910416
vt 0.336141 0.910416
vt 0.336141 0.925427
vt 0.218575 0.729269
vt 0.211600 0.729269
vt 0.482830 0.755873
vt 0.482830 0.934848
vt 0.476690 0.934848
vt 0.476690 0.755873
vt 0.446569 0.744906
vt 0.446547 0.737277
vt 0.620651 0.543873
vt 0.620651 0.573451
vt 0.465515 0.744906
vt 0.601261 0.744906
vt 0.601261 0.751882
vt 0.446569 0.751882
vt 0.620651 0.744906
vt 0.620651 0.751882
vt 0.470555 0.930494
vt 0.456525 0.930533
vt 0.456525 0.838148
vt 0.456525 0.820695
vt 0.456525 0.755873
vt 0.465100 0.755873
vt 0.450385 0.820695
vt 0.450385 0.755873
vt 0.450385 0.838148
vt 0.450385 0.930533
vt 0.336141 0.930998
vt 0.318701 0.730984
vt 0.226316 0.730984
vt 0.413133 0.717992
vt 0.407569 0.717992
vt 0.444249 0.755872
vt 0.444249 0.930492
vt 0.438685 0.930492
vt 0.438685 0.755872
vt 0.660649 0.543867
vt 0.655085 0.543867
vt 0.387091 0.504271
vt 0.336154 0.730984
vt 0.343253 0.929562
vt 0.400976 0.730984
vt 0.072579 0.733259
vt 0.072579 0.869005
vt 0.067015 0.869005
vt 0.067015 0.733259
vt 0.072579 0.888395
vt 0.067015 0.888395
vt 0.564836 0.289405
vt 0.564852 0.296957
vt 0.403340 0.487106
vt 0.393225 0.487088
vt 0.393225 0.479033
vt 0.550489 0.289405
vt 0.411429 0.499013
vt 0.565283 0.499013
vt 0.565283 0.505989
vt 0.411429 0.505989
vt 0.393225 0.499013
vt 0.393225 0.505989
vt 0.472838 0.289405
vt 0.453896 0.289405
vt 0.453896 0.283265
vt 0.472838 0.283265
vt 0.550489 0.283265
vt 0.565260 0.487380
vt 0.564836 0.283265
vt 0.393225 0.289405
vt 0.393225 0.283265
vt 0.078714 0.733261
vt 0.084546 0.733261
vt 0.309243 0.916254
vt 0.309243 0.910416
vt 0.321367 0.509980
vt 0.340309 0.509980
vt 0.231213 0.283265
vt 0.385067 0.283265
vt 0.199675 0.514097
vt 0.199675 0.508265
vt 0.213008 0.283265
vt 0.642855 0.543866
vt 0.648687 0.543866
vt 0.090680 0.895178
vt 0.090680 0.733259
vt 0.096512 0.733259
vt 0.096512 0.895178
vt 0.400976 0.509980

# vertex normals
vn 0.000000 -1.000000 0.000000
vn 1.000000 0.000000 0.000000
vn -1.000000 0.000000 0.000000
vn -0.000000 0.999998 -0.002139
vn 0.030997 0.746670 -0.664472
vn 0.000000 -0.999998 0.002138
vn 0.005664 -0.999984 0.000000
vn 0.000000 -0.999996 -0.002754
vn -0.999912 -0.013240 0.000000
vn -0.276695 0.960958 -0.000000
vn 0.239516 0.970892 -0.000000
vn 0.000000 0.000000 1.000000
vn 0.094997 0.983852 0.151691
vn 0.015543 0.957843 0.286871
vn -0.149365 0.976486 0.155452
vn 0.000000 -0.000000 -1.000000
vn 0.015177 0.935295 -0.353545
vn 0.112404 0.979446 -0.167484
vn -0.169330 0.971743 -0.164447
vn 0.030997 0.746670 0.664472
vn -0.689190 0.724581 -0.000000
vn 0.704245 0.709957 -0.000000
vn -0.000000 0.999996 0.002754
vn 0.000000 1.000000 -0.000000
vn -0.014552 0.999894 -0.000000
vn -0.009660 0.999953 -0.000000
vn 0.999753 0.022234 -0.000000
vn 0.999918 -0.012837 0.000000
vn -0.999753 -0.022234 0.000000
vn -0.016898 -0.999857 0.000000
vn -0.009660 0.999953 -0.000000
vn 0.000000 -0.000000 -1.000000
vn 0.016898 0.999857 -0.000000
vn 0.009660 -0.999953 0.000000
vn -0.999918 0.012837 -0.000000
vn 0.000000 -0.000000 -1.000000
vn 0.999976 0.006963 -0.000000
vn 0.000000 -0.000000 -1.000000
vn 0.000000 -0.000001 -1.000000
vn 0.000000 -0.000000 -1.000000
vn 0.009660 -0.999953 0.000000
vn 0.009660 -0.999953 0.000000
vn -0.999836 -0.018088 0.000000
vn 0.000000 0.000000 1.000000
vn 0.014553 -0.999894 0.000000
vn 0.999966 0.008256 -0.000000
vn 0.000000 0.769736 0.638362
vn 0.999966 0.008256 -0.000000
vn 0.000000 -0.999996 -0.002755
vn 1.000000 0.000000 0.000000
vn 1.000000 0.000000 0.000000
vn 0.000000 0.000000 1.000000
vn 0.012716 -0.999919 0.000000
vn 0.000000 0.741512 -0.670939
vn -0.999912 -0.013242 0.000000
vn 0.014552 -0.999894 0.000000
vn -0.019814 0.999804 -0.000000
vn -1.000000 -0.000000 -0.000000
vn 0.000000 -0.743219 0.669048
vn 0.000000 0.031224 -0.999512
vn 1.000000 -0.000000 -0.000001
vn 0.000000 -0.999998 0.002139
vn 0.000000 -0.762166 -0.647382
vn 0.000000 -0.001696 0.999999

# Mesh
g Cube
usemtl Material
f 3/3/1 4/4/1 1/1/1 2/2/1
f 6/6/2 7/7/2 8/8/2 5/5/2
f 12/12/3 9/9/3 10/10/3 11/11/3
f 14/14/1 15/15/1 16/16/1 13/13/1
f 6/21/4 21/22/4 17/17/4 18/18/4 19/19/4 20/20/4
f 24/25/1 22/23/1 14/14/1 23/24/1
f 25/26/5 26/27/5 27/28/5
f 28/31/6 29/32/6 20/29/6 19/30/6
f 33/36/7 30/33/7 31/34/7 32/35/7
f 34/37/8 35/38/8 36/39/8 37/40/8
f 39/42/9 40/43/9 41/44/9 38/41/9
f 2/2/1 1/1/1 45/48/1 42/45/1 43/46/1 44/47/1
f 46/49/10 26/27/10 47/50/10 48/51/10
f 50/53/11 51/54/11 25/26/11 49/52/11
f 1/56/12 52/57/12 53/58/12 45/55/12
f 54/60/13 50/53/13 49/52/13 52/59/13
f 52/59/14 49/52/14 46/49/14 53/61/14
f 53/61/15 46/49/15 48/51/15 55/62/15
f 59/66/16 56/63/16 57/64/16 58/65/16
f 25/26/17 59/67/17 58/68/17 26/27/17
f 56/74/1 60/69/1 61/70/1 62/71/1 63/72/1 57/73/1
f 57/73/1 63/72/1 64/75/1 65/76/1
f 68/80/2 51/77/2 66/78/2 67/79/2
f 51/77/2 50/82/2 3/81/2 66/78/2
f 50/82/2 54/83/2 4/84/2 3/81/2
f 51/54/18 68/85/18 59/67/18 25/26/18
f 4/86/12 54/87/12 52/57/12 1/56/12
f 68/88/16 67/89/16 56/63/16 59/66/16
f 67/90/1 66/91/1 60/69/1 56/74/1
f 66/91/1 3/3/1 2/2/1 69/92/1 70/93/1 60/69/1
f 48/96/3 47/97/3 64/94/3 71/95/3
f 55/99/3 48/96/3 71/95/3 72/98/3
f 47/97/3 73/100/3 65/101/3 64/94/3
f 42/45/1 45/48/1 72/102/1 71/103/1
f 26/27/19 58/68/19 73/104/19 47/50/19
f 75/106/1 42/45/1 71/103/1 64/75/1 63/72/1 74/105/1
f 45/55/12 53/58/12 55/107/12 72/108/12
f 58/65/16 57/64/16 65/109/16 73/110/16
f 46/49/20 49/52/20 27/28/20
f 27/28/21 26/27/21 46/49/21
f 27/28/22 49/52/22 25/26/22
f 9/9/3 76/111/3 77/112/3 10/10/3
f 13/13/1 16/16/1 10/113/1 77/114/1
f 35/117/23 34/118/23 76/119/23 9/120/23 78/115/23 79/116/23
f 81/122/1 13/13/1 77/114/1 80/121/1
f 21/124/2 6/6/2 5/5/2 22/123/2
f 82/126/24 78/115/24 9/120/24 12/125/24
f 83/128/2 21/124/2 22/123/2 24/127/2
f 22/23/1 5/129/1 15/15/1 14/14/1
f 84/130/12 85/131/12 82/132/12 86/133/12
f 86/133/12 82/132/12 12/134/12 11/135/12
f 8/136/12 7/137/12 85/131/12 84/130/12
f 16/16/1 86/138/1 11/139/1 10/113/1
f 15/15/1 84/140/1 86/138/1 16/16/1
f 85/143/25 20/20/25 39/141/25 87/142/25 78/115/25 82/126/25
f 5/129/1 8/144/1 84/140/1 15/15/1
f 7/145/24 6/21/24 20/20/24 85/143/24
f 89/148/16 23/149/16 81/146/16 88/147/16
f 88/147/16 81/146/16 80/150/16 90/151/16
f 83/152/16 24/153/16 23/149/16 89/148/16
f 21/22/24 83/154/24 89/155/24 17/17/24
f 17/17/26 89/155/26 88/160/26 34/118/26 91/156/26 92/157/26 93/158/26 94/159/26
f 23/24/1 14/14/1 13/13/1 81/122/1
f 34/118/24 88/160/24 90/161/24 76/119/24
f 76/111/3 90/162/3 80/163/3 77/112/3
f 96/165/27 97/166/27 98/167/27 95/164/27
f 99/169/28 100/170/28 101/171/28 92/168/28
f 93/173/29 96/174/29 95/175/29 102/172/29
f 102/177/30 95/178/30 100/179/30 99/176/30
f 96/181/31 93/158/26 92/157/26 101/180/31
f 98/184/32 97/185/32 103/182/32 104/183/32
f 95/187/33 98/188/33 104/189/33 100/186/33
f 97/193/34 96/190/34 101/191/34 103/192/34
f 100/195/35 104/196/35 103/197/35 101/194/35
f 107/201/36 105/198/36 106/199/36 33/200/36
f 91/203/37 108/204/37 32/205/37 31/202/37
f 61/207/24 109/208/24 110/209/24 62/206/24
f 62/206/24 110/209/24 111/211/24 63/210/24
f 60/212/24 112/213/24 109/208/24 61/207/24
f 30/215/38 94/216/38 93/217/38 102/218/38 99/219/38 92/220/38 91/221/38 31/214/38
f 109/222/39 33/200/39 32/223/39 110/224/39
f 110/224/16 32/223/16 113/225/16 111/226/16
f 32/223/40 108/227/40 114/228/40 113/225/16
f 112/229/16 107/201/16 33/200/16 109/222/39
f 114/230/1 34/37/1 37/40/1 115/231/1
f 42/232/24 75/233/24 116/234/24 117/235/24
f 118/238/1 119/239/1 17/236/1 105/237/1
f 29/32/1 121/241/1 120/240/1 20/29/1
f 108/243/41 91/242/41 34/37/41 114/230/41
f 105/237/42 17/236/42 94/244/42 106/245/42
f 106/249/43 94/246/43 30/247/43 33/248/43
f 123/251/12 124/252/12 125/253/12 122/250/12
f 74/255/3 63/256/3 127/257/3 126/254/3
f 75/258/3 35/259/3 79/260/3
f 111/226/16 113/225/16 128/261/16 129/262/16
f 131/265/44 44/266/44 43/263/44 130/264/44
f 132/267/24 133/268/24 112/213/24 60/212/24
f 20/29/45 120/240/45 40/270/45 39/269/45
f 135/274/46 130/271/46 43/272/46 134/273/46
f 137/277/47 138/278/47 69/275/47 136/276/47
f 123/282/48 87/279/48 139/280/48 124/281/48
f 39/283/12 38/284/12 139/285/12 87/286/12
f 79/287/49 78/288/49 140/289/49 141/290/49
f 143/293/24 144/294/24 2/291/24 142/292/24
f 69/296/50 2/297/50 145/298/50 146/299/50 136/295/50
f 147/302/16 148/303/16 146/300/16 145/301/16
f 149/304/51 19/305/51 18/306/51
f 135/308/12 134/309/12 151/310/12 150/307/12
f 154/314/12 152/311/12 153/312/12 41/313/12
f 155/317/12 154/314/12 41/313/12 40/315/12 120/316/12
f 124/252/12 135/308/12 150/307/12 125/253/12
f 41/313/12 153/312/12 135/308/12 124/252/52
f 152/311/12 142/319/12 156/318/12 153/312/12
f 38/321/53 41/322/53 124/323/53 139/320/53
f 121/324/12 157/325/12 155/317/12 120/316/12
f 74/326/54 126/327/54 158/328/54 159/329/54
f 131/331/55 153/332/55 156/333/55 44/330/55
f 134/336/24 43/334/24 42/232/24 151/335/24
f 148/303/16 137/338/16 136/337/16 146/300/16
f 142/292/24 2/291/24 44/339/24 156/340/24
f 87/341/56 123/342/56 122/343/56 78/288/56
f 63/210/24 111/211/24 129/344/24 160/345/24
f 153/349/57 131/346/57 130/347/57 135/348/57
f 116/352/3 159/353/3 158/354/3 37/350/3 36/351/3
f 161/355/3 128/356/3 115/357/3 37/350/3 158/354/3
f 160/358/3 129/359/3 128/356/3 161/355/3
f 117/364/58 116/365/58 141/360/58 140/361/58 162/362/58 163/363/58
f 165/367/3 117/364/58 163/363/3 164/366/3
f 164/366/3 163/363/3 162/362/3 166/368/3
f 166/368/3 162/362/3 140/361/3 167/369/3
f 78/288/1 122/343/1 167/370/1 140/289/1
f 122/250/12 125/253/12 166/371/12 167/372/12
f 35/38/59 75/373/59 116/374/59 36/39/59
f 75/375/60 79/376/60 141/377/60 116/378/60
f 75/379/24 74/326/24 159/329/24 116/380/24
f 113/225/16 114/228/40 115/381/16 128/261/16
f 125/253/12 150/307/12 164/382/12 166/371/12
f 151/335/24 42/232/24 117/235/24 165/383/24
f 150/307/12 151/310/12 165/384/12 164/382/12
f 126/385/12 127/386/12 161/387/12 158/388/12
f 127/386/12 63/389/12 160/390/12 161/387/12
f 169/394/2 138/395/2 137/396/2 29/391/2 28/392/2 168/393/2
f 171/400/2 170/397/2 119/398/2 118/399/2
f 133/402/2 132/401/2 170/397/2 171/400/2
f 147/404/2 172/405/2 173/406/2 148/403/2
f 148/403/2 173/406/2 157/407/2 137/396/2
f 169/394/2 168/393/2 132/401/2
f 132/401/2 168/393/61 174/408/61 119/398/2 170/397/2
f 137/396/2 157/407/2 121/409/2 29/391/2
f 144/410/2 143/411/2 172/405/2 147/404/2
f 144/413/16 147/302/16 145/301/16 2/412/16
f 119/239/62 174/415/62 18/414/62 17/236/62
f 173/416/12 172/417/12 152/311/12 154/314/12
f 171/418/16 118/419/16 105/198/36 107/201/16
f 169/421/24 132/267/24 60/212/24 70/420/24
f 133/422/16 171/418/16 107/201/16 112/229/16
f 168/424/63 28/31/63 19/30/63 149/423/63
f 174/427/64 168/428/64 149/425/64 18/426/64
f 157/325/12 173/416/12 154/314/12 155/317/12
f 138/278/24 169/421/24 70/420/24 69/275/24
f 172/417/12 143/429/12 142/319/12 152/311/12
